<svg width="32" height="33" viewBox="0 0 32 33" fill="none" xmlns="http://www.w3.org/2000/svg">
<g clip-path="url(#clip0_512_1530)">
<path d="M16 2.86169C8.63996 2.86169 2.66663 8.83503 2.66663 16.195C2.66663 23.555 8.63996 29.5284 16 29.5284C23.36 29.5284 29.3333 23.555 29.3333 16.195C29.3333 8.83503 23.36 2.86169 16 2.86169ZM9.42663 24.5684C9.99996 23.3684 13.4933 22.195 16 22.195C18.5066 22.195 22.0133 23.3684 22.5733 24.5684C20.76 26.0084 18.48 26.8617 16 26.8617C13.52 26.8617 11.24 26.0084 9.42663 24.5684ZM24.48 22.635C22.5733 20.315 17.9466 19.5284 16 19.5284C14.0533 19.5284 9.42663 20.315 7.51996 22.635C6.15996 20.8484 5.33329 18.6217 5.33329 16.195C5.33329 10.315 10.12 5.52836 16 5.52836C21.88 5.52836 26.6666 10.315 26.6666 16.195C26.6666 18.6217 25.84 20.8484 24.48 22.635V22.635ZM16 8.19503C13.4133 8.19503 11.3333 10.275 11.3333 12.8617C11.3333 15.4484 13.4133 17.5284 16 17.5284C18.5866 17.5284 20.6666 15.4484 20.6666 12.8617C20.6666 10.275 18.5866 8.19503 16 8.19503ZM16 14.8617C14.8933 14.8617 14 13.9684 14 12.8617C14 11.755 14.8933 10.8617 16 10.8617C17.1066 10.8617 18 11.755 18 12.8617C18 13.9684 17.1066 14.8617 16 14.8617Z" fill="#2B76A3"/>
</g>
<defs>
<clipPath id="clip0_512_1530">
<rect width="32" height="32" fill="white" transform="translate(0 0.195068)"/>
</clipPath>
</defs>
</svg>
