<svg width="32" height="32" viewBox="0 0 32 32" fill="none" xmlns="http://www.w3.org/2000/svg">
<g clip-path="url(#clip0_401_339)">
<path d="M16.0001 2.66663C8.64008 2.66663 2.66675 8.63996 2.66675 16C2.66675 23.36 8.64008 29.3333 16.0001 29.3333C23.3601 29.3333 29.3334 23.36 29.3334 16C29.3334 8.63996 23.3601 2.66663 16.0001 2.66663ZM9.42675 24.3733C10.0001 23.1733 13.4934 22 16.0001 22C18.5067 22 22.0134 23.1733 22.5734 24.3733C20.7601 25.8133 18.4801 26.6666 16.0001 26.6666C13.5201 26.6666 11.2401 25.8133 9.42675 24.3733ZM24.4801 22.44C22.5734 20.12 17.9467 19.3333 16.0001 19.3333C14.0534 19.3333 9.42675 20.12 7.52008 22.44C6.16008 20.6533 5.33342 18.4266 5.33342 16C5.33342 10.12 10.1201 5.33329 16.0001 5.33329C21.8801 5.33329 26.6668 10.12 26.6668 16C26.6668 18.4266 25.8401 20.6533 24.4801 22.44V22.44ZM16.0001 7.99996C13.4134 7.99996 11.3334 10.08 11.3334 12.6666C11.3334 15.2533 13.4134 17.3333 16.0001 17.3333C18.5868 17.3333 20.6668 15.2533 20.6668 12.6666C20.6668 10.08 18.5868 7.99996 16.0001 7.99996ZM16.0001 14.6666C14.8934 14.6666 14.0001 13.7733 14.0001 12.6666C14.0001 11.56 14.8934 10.6666 16.0001 10.6666C17.1067 10.6666 18.0001 11.56 18.0001 12.6666C18.0001 13.7733 17.1067 14.6666 16.0001 14.6666Z" fill="#2B76A3"/>
</g>
<defs>
<clipPath id="clip0_401_339">
<rect width="32" height="32" fill="white"/>
</clipPath>
</defs>
</svg>
