<svg width="32" height="33" viewBox="0 0 32 33" fill="none" xmlns="http://www.w3.org/2000/svg">
<g clip-path="url(#clip0_512_2041)">
<path d="M15.9998 2.86172C8.63984 2.86172 2.6665 8.83506 2.6665 16.1951C2.6665 23.5551 8.63984 29.5284 15.9998 29.5284C23.3598 29.5284 29.3332 23.5551 29.3332 16.1951C29.3332 8.83506 23.3598 2.86172 15.9998 2.86172ZM9.4265 24.5684C9.99984 23.3684 13.4932 22.1951 15.9998 22.1951C18.5065 22.1951 22.0132 23.3684 22.5732 24.5684C20.7598 26.0084 18.4798 26.8617 15.9998 26.8617C13.5198 26.8617 11.2398 26.0084 9.4265 24.5684ZM24.4798 22.6351C22.5732 20.3151 17.9465 19.5284 15.9998 19.5284C14.0532 19.5284 9.4265 20.3151 7.51984 22.6351C6.15984 20.8484 5.33317 18.6217 5.33317 16.1951C5.33317 10.3151 10.1198 5.52839 15.9998 5.52839C21.8798 5.52839 26.6665 10.3151 26.6665 16.1951C26.6665 18.6217 25.8398 20.8484 24.4798 22.6351V22.6351ZM15.9998 8.19506C13.4132 8.19506 11.3332 10.2751 11.3332 12.8617C11.3332 15.4484 13.4132 17.5284 15.9998 17.5284C18.5865 17.5284 20.6665 15.4484 20.6665 12.8617C20.6665 10.2751 18.5865 8.19506 15.9998 8.19506ZM15.9998 14.8617C14.8932 14.8617 13.9998 13.9684 13.9998 12.8617C13.9998 11.7551 14.8932 10.8617 15.9998 10.8617C17.1065 10.8617 17.9998 11.7551 17.9998 12.8617C17.9998 13.9684 17.1065 14.8617 15.9998 14.8617Z" fill="#2B76A3"/>
</g>
<defs>
<clipPath id="clip0_512_2041">
<rect width="32" height="32" fill="white" transform="translate(0 0.195068)"/>
</clipPath>
</defs>
</svg>
