<svg width="32" height="33" viewBox="0 0 32 33" fill="none" xmlns="http://www.w3.org/2000/svg">
<g clip-path="url(#clip0_512_1822)">
<path d="M16.0001 2.86172C8.64008 2.86172 2.66675 8.83506 2.66675 16.1951C2.66675 23.5551 8.64008 29.5284 16.0001 29.5284C23.3601 29.5284 29.3334 23.5551 29.3334 16.1951C29.3334 8.83506 23.3601 2.86172 16.0001 2.86172ZM9.42675 24.5684C10.0001 23.3684 13.4934 22.1951 16.0001 22.1951C18.5067 22.1951 22.0134 23.3684 22.5734 24.5684C20.7601 26.0084 18.4801 26.8617 16.0001 26.8617C13.5201 26.8617 11.2401 26.0084 9.42675 24.5684ZM24.4801 22.6351C22.5734 20.3151 17.9467 19.5284 16.0001 19.5284C14.0534 19.5284 9.42675 20.3151 7.52008 22.6351C6.16008 20.8484 5.33342 18.6217 5.33342 16.1951C5.33342 10.3151 10.1201 5.52839 16.0001 5.52839C21.8801 5.52839 26.6668 10.3151 26.6668 16.1951C26.6668 18.6217 25.8401 20.8484 24.4801 22.6351V22.6351ZM16.0001 8.19506C13.4134 8.19506 11.3334 10.2751 11.3334 12.8617C11.3334 15.4484 13.4134 17.5284 16.0001 17.5284C18.5868 17.5284 20.6668 15.4484 20.6668 12.8617C20.6668 10.2751 18.5868 8.19506 16.0001 8.19506ZM16.0001 14.8617C14.8934 14.8617 14.0001 13.9684 14.0001 12.8617C14.0001 11.7551 14.8934 10.8617 16.0001 10.8617C17.1067 10.8617 18.0001 11.7551 18.0001 12.8617C18.0001 13.9684 17.1067 14.8617 16.0001 14.8617Z" fill="#2B76A3"/>
</g>
<defs>
<clipPath id="clip0_512_1822">
<rect width="32" height="32" fill="white" transform="translate(0 0.195068)"/>
</clipPath>
</defs>
</svg>
