<svg width="32" height="33" viewBox="0 0 32 33" fill="none" xmlns="http://www.w3.org/2000/svg">
<g clip-path="url(#clip0_431_389)">
<path d="M16 2.86182C8.63999 2.86182 2.66666 8.83515 2.66666 16.1952C2.66666 23.5552 8.63999 29.5285 16 29.5285C23.36 29.5285 29.3333 23.5552 29.3333 16.1952C29.3333 8.83515 23.36 2.86182 16 2.86182ZM9.42666 24.5685C9.99999 23.3685 13.4933 22.1952 16 22.1952C18.5067 22.1952 22.0133 23.3685 22.5733 24.5685C20.76 26.0085 18.48 26.8618 16 26.8618C13.52 26.8618 11.24 26.0085 9.42666 24.5685ZM24.48 22.6352C22.5733 20.3152 17.9467 19.5285 16 19.5285C14.0533 19.5285 9.42666 20.3152 7.51999 22.6352C6.15999 20.8485 5.33332 18.6218 5.33332 16.1952C5.33332 10.3152 10.12 5.52848 16 5.52848C21.88 5.52848 26.6667 10.3152 26.6667 16.1952C26.6667 18.6218 25.84 20.8485 24.48 22.6352V22.6352ZM16 8.19515C13.4133 8.19515 11.3333 10.2752 11.3333 12.8618C11.3333 15.4485 13.4133 17.5285 16 17.5285C18.5867 17.5285 20.6667 15.4485 20.6667 12.8618C20.6667 10.2752 18.5867 8.19515 16 8.19515ZM16 14.8618C14.8933 14.8618 14 13.9685 14 12.8618C14 11.7552 14.8933 10.8618 16 10.8618C17.1067 10.8618 18 11.7552 18 12.8618C18 13.9685 17.1067 14.8618 16 14.8618Z" fill="#2B76A3"/>
</g>
<defs>
<clipPath id="clip0_431_389">
<rect width="32" height="32" fill="white" transform="translate(0 0.195068)"/>
</clipPath>
</defs>
</svg>
