<svg width="32" height="33" viewBox="0 0 32 33" fill="none" xmlns="http://www.w3.org/2000/svg">
<g clip-path="url(#clip0_512_1968)">
<path d="M15.9998 2.86169C8.63984 2.86169 2.6665 8.83503 2.6665 16.195C2.6665 23.555 8.63984 29.5284 15.9998 29.5284C23.3598 29.5284 29.3332 23.555 29.3332 16.195C29.3332 8.83503 23.3598 2.86169 15.9998 2.86169ZM9.4265 24.5684C9.99984 23.3684 13.4932 22.195 15.9998 22.195C18.5065 22.195 22.0132 23.3684 22.5732 24.5684C20.7598 26.0084 18.4798 26.8617 15.9998 26.8617C13.5198 26.8617 11.2398 26.0084 9.4265 24.5684ZM24.4798 22.635C22.5732 20.315 17.9465 19.5284 15.9998 19.5284C14.0532 19.5284 9.4265 20.315 7.51984 22.635C6.15984 20.8484 5.33317 18.6217 5.33317 16.195C5.33317 10.315 10.1198 5.52836 15.9998 5.52836C21.8798 5.52836 26.6665 10.315 26.6665 16.195C26.6665 18.6217 25.8398 20.8484 24.4798 22.635V22.635ZM15.9998 8.19503C13.4132 8.19503 11.3332 10.275 11.3332 12.8617C11.3332 15.4484 13.4132 17.5284 15.9998 17.5284C18.5865 17.5284 20.6665 15.4484 20.6665 12.8617C20.6665 10.275 18.5865 8.19503 15.9998 8.19503ZM15.9998 14.8617C14.8932 14.8617 13.9998 13.9684 13.9998 12.8617C13.9998 11.755 14.8932 10.8617 15.9998 10.8617C17.1065 10.8617 17.9998 11.755 17.9998 12.8617C17.9998 13.9684 17.1065 14.8617 15.9998 14.8617Z" fill="#2B76A3"/>
</g>
<defs>
<clipPath id="clip0_512_1968">
<rect width="32" height="32" fill="white" transform="translate(0 0.195068)"/>
</clipPath>
</defs>
</svg>
