<svg width="32" height="33" viewBox="0 0 32 33" fill="none" xmlns="http://www.w3.org/2000/svg">
<g clip-path="url(#clip0_512_1895)">
<path d="M15.9998 2.86182C8.63984 2.86182 2.6665 8.83515 2.6665 16.1952C2.6665 23.5552 8.63984 29.5285 15.9998 29.5285C23.3598 29.5285 29.3332 23.5552 29.3332 16.1952C29.3332 8.83515 23.3598 2.86182 15.9998 2.86182ZM9.4265 24.5685C9.99984 23.3685 13.4932 22.1952 15.9998 22.1952C18.5065 22.1952 22.0132 23.3685 22.5732 24.5685C20.7598 26.0085 18.4798 26.8618 15.9998 26.8618C13.5198 26.8618 11.2398 26.0085 9.4265 24.5685ZM24.4798 22.6352C22.5732 20.3152 17.9465 19.5285 15.9998 19.5285C14.0532 19.5285 9.4265 20.3152 7.51984 22.6352C6.15984 20.8485 5.33317 18.6218 5.33317 16.1952C5.33317 10.3152 10.1198 5.52848 15.9998 5.52848C21.8798 5.52848 26.6665 10.3152 26.6665 16.1952C26.6665 18.6218 25.8398 20.8485 24.4798 22.6352V22.6352ZM15.9998 8.19515C13.4132 8.19515 11.3332 10.2752 11.3332 12.8618C11.3332 15.4485 13.4132 17.5285 15.9998 17.5285C18.5865 17.5285 20.6665 15.4485 20.6665 12.8618C20.6665 10.2752 18.5865 8.19515 15.9998 8.19515ZM15.9998 14.8618C14.8932 14.8618 13.9998 13.9685 13.9998 12.8618C13.9998 11.7552 14.8932 10.8618 15.9998 10.8618C17.1065 10.8618 17.9998 11.7552 17.9998 12.8618C17.9998 13.9685 17.1065 14.8618 15.9998 14.8618Z" fill="#2B76A3"/>
</g>
<defs>
<clipPath id="clip0_512_1895">
<rect width="32" height="32" fill="white" transform="translate(0 0.195068)"/>
</clipPath>
</defs>
</svg>
