<svg width="27" height="27" viewBox="0 0 27 27" fill="none" xmlns="http://www.w3.org/2000/svg">
<path d="M19.25 17H18.065L17.645 16.595C19.445 14.495 20.375 11.63 19.865 8.58496C19.16 4.41496 15.68 1.08496 11.48 0.574962C5.13496 -0.205038 -0.205038 5.13496 0.574962 11.48C1.08496 15.68 4.41496 19.16 8.58496 19.865C11.63 20.375 14.495 19.445 16.595 17.645L17 18.065V19.25L23.375 25.625C23.99 26.24 24.995 26.24 25.61 25.625C26.225 25.01 26.225 24.005 25.61 23.39L19.25 17ZM10.25 17C6.51496 17 3.49996 13.985 3.49996 10.25C3.49996 6.51496 6.51496 3.49996 10.25 3.49996C13.985 3.49996 17 6.51496 17 10.25C17 13.985 13.985 17 10.25 17Z" fill="#2B76A3"/>
</svg>
