<svg width="27" height="27" viewBox="0 0 27 27" fill="none" xmlns="http://www.w3.org/2000/svg">
<path d="M19.25 17.195H18.065L17.645 16.79C19.445 14.69 20.375 11.825 19.865 8.78003C19.16 4.61003 15.68 1.28003 11.48 0.77003C5.13496 -0.00996979 -0.205038 5.33003 0.574962 11.675C1.08496 15.875 4.41496 19.355 8.58496 20.06C11.63 20.57 14.495 19.64 16.595 17.84L17 18.26V19.445L23.375 25.82C23.99 26.435 24.995 26.435 25.61 25.82C26.225 25.205 26.225 24.2 25.61 23.585L19.25 17.195ZM10.25 17.195C6.51496 17.195 3.49996 14.18 3.49996 10.445C3.49996 6.71003 6.51496 3.69503 10.25 3.69503C13.985 3.69503 17 6.71003 17 10.445C17 14.18 13.985 17.195 10.25 17.195Z" fill="#2B76A3"/>
</svg>
